<?xml version="1.0" encoding="utf-8"?>
<!-- Generator: Adobe Illustrator 26.3.1, SVG Export Plug-In . SVG Version: 6.00 Build 0)  -->
<svg version="1.1" id="Layer_1" xmlns="http://www.w3.org/2000/svg" xmlns:xlink="http://www.w3.org/1999/xlink" x="0px" y="0px"
	 viewBox="0 0 321 62" style="enable-background:new 0 0 321 62;" xml:space="preserve">
<style type="text/css">
	.st0{fill:#FFFFFF;}
	.st1{opacity:0.15;fill:#FFFFFF;}
	.st2{opacity:0.6;}
</style>
<g>
	<path class="st0" d="M67.9,17.41v31.28h-9.38v-2.94c-2.06,2.38-5.13,3.82-9.32,3.82c-8.2,0-14.95-7.19-14.95-16.52
		c0-9.32,6.76-16.52,14.95-16.52c4.19,0,7.26,1.44,9.32,3.82v-2.94H67.9z M58.52,33.05c0-4.69-3.13-7.63-7.44-7.63
		c-4.32,0-7.44,2.94-7.44,7.63c0,4.69,3.13,7.63,7.44,7.63C55.39,40.69,58.52,37.75,58.52,33.05z"/>
	<path class="st0" d="M91.29,17.41v9.22c-4.56-1-10.59,1.73-10.59,7.93v14.14h-9.38V17.41h9.38v5.57
		C81.95,18.79,85.85,16.77,91.29,17.41z"/>
	<path class="st0" d="M107.98,26.42V37.5c0,2.69,2.31,2.94,6.44,2.69v8.51c-12.26,1.25-15.83-2.44-15.83-11.2V26.42h-5v-9.01h5V5.49
		l9.38,0.01v11.92h6.44v9.01H107.98z"/>
	<path class="st0" d="M130.1,33.06c0-9.32,7.07-16.52,16.58-16.52c6.07,0,11.45,3.19,14.14,8.01l-8.19,4.75
		c-1.06-2.19-3.32-3.5-6.07-3.5c-4.07,0-7.07,2.94-7.07,7.26c0,4.32,3,7.26,7.07,7.26c2.75,0,5.07-1.31,6.07-3.5l8.19,4.69
		c-2.69,4.88-8.01,8.07-14.14,8.07C137.17,49.57,130.1,42.38,130.1,33.06z"/>
	<path class="st0" d="M162.88,5.59h9.38v43.1h-9.38V5.59z"/>
	<path class="st0" d="M192.61,41.19c2.56,0,4.75-1,6.01-2.38l7.51,4.32c-3.07,4.25-7.69,6.44-13.64,6.44
		c-10.7,0-17.33-7.19-17.33-16.52c0-9.32,6.76-16.52,16.64-16.52c9.13,0,15.89,7.07,15.89,16.52c0,1.31-0.13,2.57-0.38,3.75H185.1
		C186.29,40.06,189.17,41.19,192.61,41.19z M198.37,29.8c-1-3.63-3.82-4.94-6.63-4.94c-3.57,0-5.94,1.75-6.82,4.94H198.37z"/>
	<path class="st0" d="M16.39,17.2H9.58v9.72h-9.82v35.23h9.83V48.33h6.81c8.95,0,15.89-6.94,15.89-15.56S25.34,17.2,16.39,17.2z
		 M16.39,38.6H9.58V26.93h6.81c3.18,0,5.51,2.53,5.51,5.84C21.91,36.07,19.57,38.6,16.39,38.6z"/>
	<g>
		<path class="st0" d="M118.66,17.41h9.38v31.28h-9.38V17.41z"/>
		<rect x="118.66" y="5.59" class="st0" width="9.38" height="8.84"/>
	</g>
</g>
<rect x="228.57" y="4" class="st1" width="2" height="54"/>
<g class="st2">
	<path class="st0" d="M255.75,44.6h-8l0.12-0.6c2.13-0.25,2.52-0.6,2.87-2.25l4.24-19.89c0.35-1.65,0.11-2-1.92-2.25l0.12-0.6h7.52
		c7.89,0,12.75,4.34,12.77,10.92C273.49,38.79,265.58,44.6,255.75,44.6z M260.7,19.78l-1.58-0.07l-5.14,24.18l1.83-0.07
		c9.25-0.39,13.55-7.3,13.55-14.29C269.35,24.29,266.71,20.08,260.7,19.78z"/>
	<path class="st0" d="M294.33,43.98l-0.12,0.62h-8.92l0.14-0.62c2.36-0.28,2.75-1.08,2.46-3.62l-0.59-4.93h-8.05l-2.43,4.5
		c-1.65,3.07-1.33,3.71,0.99,4.06l-0.12,0.6h-6.45l0.12-0.6c1.86-0.27,2.5-0.78,4.36-4.1l11.72-21.01h1.49l2.82,21.49
		C292.13,43.22,292.8,43.75,294.33,43.98z M287.22,34.59l-1.35-11.42l-6.15,11.42H287.22z"/>
	<path class="st0" d="M296.54,33.5c-0.02-8.01,5.59-14.82,13.33-14.82c6.49,0,10.96,4.54,10.96,11.42c0,8.03-5.58,14.84-13.32,14.84
		C301.02,44.92,296.55,40.38,296.54,33.5z M316.84,28.81c0-6.01-2.64-9.22-6.65-9.22c-5.85,0-9.66,7.84-9.66,15.23
		c0,5.99,2.64,9.22,6.65,9.22C312.65,44.04,316.84,37.05,316.84,28.81z"/>
</g>
</svg>
